<svg width="30" height="34" viewBox="0 0 30 34" fill="none" xmlns="http://www.w3.org/2000/svg">
<path d="M26.3892 0.383789C28.3366 0.383789 29.9073 1.95865 30.0001 3.81192V33.6263L26.2922 30.478L24.2561 28.6247L22.0344 26.6883L22.9624 29.7425H3.51829C1.57637 29.7425 0.00012207 28.2673 0.00012207 26.313V3.81885C0.00012207 1.96558 1.57914 0.387944 3.52522 0.387944H26.3795L26.3892 0.383789ZM17.9151 8.25534H17.8735L17.5937 8.53236C20.4651 9.36343 21.8543 10.6613 21.8543 10.6613C20.0038 9.73602 18.3361 9.2734 16.6685 9.08641C15.4634 8.89942 14.2584 8.99776 13.2403 9.08641H12.9633C12.3123 9.08641 10.9272 9.36343 9.07118 10.1045C8.42433 10.3856 8.05313 10.5699 8.05313 10.5699C8.05313 10.5699 9.441 9.18198 12.4993 8.44095L12.3123 8.25396C12.3123 8.25396 9.99643 8.16531 7.49631 10.013C7.49631 10.013 4.9962 14.3678 4.9962 19.7365C4.9962 19.7365 6.3813 22.1466 10.1806 22.238C10.1806 22.238 10.7347 21.4997 11.2957 20.8501C9.16259 20.2019 8.33153 18.9054 8.33153 18.9054C8.33153 18.9054 8.51714 18.9968 8.79554 19.1824H8.87865C8.9202 19.1824 8.93959 19.2032 8.96175 19.224V19.2323C8.98392 19.2545 9.00331 19.2739 9.04486 19.2739C9.50195 19.4622 9.95903 19.6478 10.333 19.8279C11.1328 20.1703 11.9694 20.4194 12.8262 20.5703C14.1143 20.7573 15.5909 20.8473 17.2724 20.5703C18.1035 20.3833 18.9345 20.2005 19.7656 19.8293C20.3058 19.5523 20.9706 19.2752 21.7006 18.8085C21.7006 18.8085 20.8695 20.1049 18.6464 20.7532C19.1035 21.3986 19.7476 22.1383 19.7476 22.1383C23.5483 22.0551 25.0248 19.6451 25.1079 19.7476C25.1079 14.3872 22.594 10.0241 22.594 10.0241C20.3293 8.34261 18.2101 8.27889 17.8361 8.27889L17.9137 8.25119L17.9151 8.25534ZM18.1478 14.3678C19.1215 14.3678 19.9069 15.1989 19.9069 16.2169C19.9069 17.2419 19.1173 18.073 18.1478 18.073C17.1782 18.073 16.3887 17.2419 16.3887 16.2252C16.3915 15.2003 17.1824 14.372 18.1478 14.372V14.3678ZM11.8552 14.3678C12.8248 14.3678 13.6088 15.1989 13.6088 16.2169C13.6088 17.2419 12.8193 18.073 11.8497 18.073C10.8801 18.073 10.0906 17.2419 10.0906 16.2252C10.0906 15.2003 10.8801 14.372 11.8497 14.372L11.8552 14.3678Z" />
</svg>
