<svg width="16" height="18" viewBox="0 0 16 18" fill="none" xmlns="http://www.w3.org/2000/svg">
<path d="M8.99992 10.0418C9.57522 10.0418 10.0416 9.57546 10.0416 9.00016C10.0416 8.42487 9.57522 7.9585 8.99992 7.9585C8.42462 7.9585 7.95825 8.42487 7.95825 9.00016C7.95825 9.57546 8.42462 10.0418 8.99992 10.0418Z" fill="white"/>
<path d="M11.2847 13.2499L10.3888 12.3193L10.3402 12.2707L9.45827 11.3888C9.31832 11.4133 9.17671 11.4272 9.03466 11.4304C8.71257 11.435 8.39277 11.3756 8.09386 11.2555C7.79495 11.1354 7.5229 10.9571 7.29351 10.7309C7.06412 10.5048 6.88198 10.2353 6.75766 9.93812C6.63335 9.64094 6.56935 9.32202 6.56938 8.99989C6.5726 8.85784 6.58653 8.71624 6.61105 8.57628L5.22216 7.18739L4.13883 6.13184C3.35503 6.87036 2.68356 7.71964 2.14577 8.65267C2.08482 8.75824 2.05273 8.87799 2.05273 8.99989C2.05273 9.12179 2.08482 9.24154 2.14577 9.34711C2.58327 10.1041 4.92355 13.861 9.01383 13.861H9.18744C9.95657 13.8382 10.7157 13.6807 11.4305 13.3957L11.2847 13.2499Z" fill="white"/>
<path d="M6.63184 4.66648L8.57628 6.61093C8.71624 6.58641 8.85784 6.57248 8.99989 6.56926C9.64451 6.56926 10.2627 6.82534 10.7186 7.28115C11.1744 7.73697 11.4304 8.35519 11.4304 8.99982C11.4272 9.14187 11.4133 9.28347 11.3888 9.42343L13.2499 11.2845L13.8332 11.8679C14.6269 11.1313 15.3078 10.2819 15.8541 9.34704C15.915 9.24147 15.9471 9.12172 15.9471 8.99982C15.9471 8.87792 15.915 8.75816 15.8541 8.65259C15.4096 7.88176 12.9652 4.0137 8.81239 4.1387C8.04326 4.16152 7.28408 4.319 6.56934 4.60398L6.63184 4.66648Z" fill="white"/>
<path d="M15.0485 14.0624L14.1457 13.1666L12.7569 11.7777L6.14574 5.15963L5.12491 4.1388L3.93741 2.9513C3.87266 2.88655 3.79579 2.83519 3.7112 2.80015C3.6266 2.76511 3.53593 2.74707 3.44436 2.74707C3.35279 2.74707 3.26212 2.76511 3.17752 2.80015C3.09292 2.83519 3.01605 2.88655 2.9513 2.9513C2.82053 3.08207 2.74707 3.25942 2.74707 3.44436C2.74707 3.62929 2.82053 3.80665 2.9513 3.93741L4.50686 5.52769L5.72213 6.70824L10.7985 11.7777L10.8471 11.8263L11.7777 12.7569L12.1874 13.1666L14.0624 15.0485C14.127 15.1136 14.2038 15.1653 14.2884 15.2005C14.373 15.2358 14.4638 15.2539 14.5555 15.2539C14.6471 15.2539 14.7379 15.2358 14.8225 15.2005C14.9072 15.1653 14.984 15.1136 15.0485 15.0485C15.1136 14.984 15.1653 14.9072 15.2005 14.8225C15.2358 14.7379 15.2539 14.6471 15.2539 14.5555C15.2539 14.4638 15.2358 14.373 15.2005 14.2884C15.1653 14.2038 15.1136 14.127 15.0485 14.0624Z" fill="white"/>
</svg>
