<svg width="24" height="25" viewBox="0 0 24 25" fill="none" xmlns="http://www.w3.org/2000/svg">
<path d="M12 22.4023C17.5228 22.4023 22 17.9252 22 12.4023C22 6.8795 17.5228 2.40234 12 2.40234C6.47715 2.40234 2 6.8795 2 12.4023C2 17.9252 6.47715 22.4023 12 22.4023Z" stroke="#888888" stroke-width="2" stroke-linecap="round" stroke-linejoin="round"/>
<path d="M9.09009 9.40194C9.32519 8.7336 9.78924 8.17004 10.4 7.81107C11.0108 7.4521 11.729 7.32087 12.4273 7.44065C13.1255 7.56042 13.7589 7.92346 14.2152 8.46546C14.6714 9.00747 14.9211 9.69346 14.9201 10.4019C14.9201 12.4019 11.9201 13.4019 11.9201 13.4019" stroke="#888888" stroke-width="2" stroke-linecap="round" stroke-linejoin="round"/>
<path d="M12 17.4023H12.01" stroke="#888888" stroke-width="2" stroke-linecap="round" stroke-linejoin="round"/>
</svg>
