<svg width="15" height="16" viewBox="0 0 15 16" fill="none" xmlns="http://www.w3.org/2000/svg">
<path d="M7.5 1.75C6.26387 1.75 5.0555 2.11656 4.02769 2.80331C2.99988 3.49007 2.1988 4.46619 1.72576 5.60823C1.25271 6.75027 1.12894 8.00693 1.37009 9.21931C1.61125 10.4317 2.20651 11.5453 3.08059 12.4194C3.95466 13.2935 5.06831 13.8888 6.28069 14.1299C7.49307 14.3711 8.74974 14.2473 9.89178 13.7742C11.0338 13.3012 12.0099 12.5001 12.6967 11.4723C13.3834 10.4445 13.75 9.23613 13.75 8C13.75 7.17924 13.5883 6.36651 13.2743 5.60823C12.9602 4.84994 12.4998 4.16095 11.9194 3.58058C11.3391 3.00022 10.6501 2.53984 9.89178 2.22575C9.13349 1.91166 8.32076 1.75 7.5 1.75ZM7.5 13C6.5111 13 5.5444 12.7068 4.72215 12.1573C3.89991 11.6079 3.25904 10.827 2.88061 9.91342C2.50217 8.99979 2.40315 7.99445 2.59608 7.02455C2.789 6.05464 3.26521 5.16373 3.96447 4.46447C4.66373 3.7652 5.55465 3.289 6.52455 3.09607C7.49446 2.90315 8.49979 3.00216 9.41342 3.3806C10.3271 3.75904 11.1079 4.3999 11.6574 5.22215C12.2068 6.04439 12.5 7.01109 12.5 8C12.5 9.32608 11.9732 10.5979 11.0355 11.5355C10.0979 12.4732 8.82609 13 7.5 13Z" fill="#888888"/>
<path d="M7.5 6.125C7.84518 6.125 8.125 5.84518 8.125 5.5C8.125 5.15482 7.84518 4.875 7.5 4.875C7.15482 4.875 6.875 5.15482 6.875 5.5C6.875 5.84518 7.15482 6.125 7.5 6.125Z" fill="#888888"/>
<path d="M7.5 6.75C7.33424 6.75 7.17527 6.81585 7.05806 6.93306C6.94085 7.05027 6.875 7.20924 6.875 7.375V10.5C6.875 10.6658 6.94085 10.8247 7.05806 10.9419C7.17527 11.0592 7.33424 11.125 7.5 11.125C7.66576 11.125 7.82473 11.0592 7.94194 10.9419C8.05915 10.8247 8.125 10.6658 8.125 10.5V7.375C8.125 7.20924 8.05915 7.05027 7.94194 6.93306C7.82473 6.81585 7.66576 6.75 7.5 6.75Z" fill="#888888"/>
</svg>
