<svg width="30" height="31" viewBox="0 0 30 31" fill="none" xmlns="http://www.w3.org/2000/svg">
<path d="M0.00012207 0.800781V30.8008H30.0001V0.800781H0.00012207ZM24.9226 7.90828L23.3139 9.45078C23.2456 9.50272 23.1929 9.57234 23.1614 9.6521C23.1299 9.73186 23.1208 9.81873 23.1351 9.90328V21.237C23.121 21.3214 23.1302 21.408 23.1617 21.4875C23.1932 21.567 23.2458 21.6364 23.3139 21.6883L24.8851 23.2308V23.5695H16.9826V23.232L18.6101 21.6508C18.7701 21.4908 18.7701 21.4445 18.7701 21.2008V12.0383L14.2451 23.532H13.6326L8.36262 12.0383V19.742C8.34094 19.9018 8.3559 20.0644 8.40636 20.2175C8.45682 20.3706 8.54146 20.5102 8.65387 20.6258L10.7714 23.1933V23.532H4.76887V23.1945L6.88762 20.6258C6.99912 20.5101 7.08187 20.3699 7.12921 20.2164C7.17654 20.0629 7.18713 19.9004 7.16012 19.742V10.8345C7.1726 10.7125 7.15613 10.5893 7.11204 10.4748C7.06795 10.3603 6.99748 10.2579 6.90637 10.1758L5.02387 7.90828V7.57078H10.8664L15.3826 17.4745L19.3526 7.56953H24.9226V7.90828Z" />
</svg>
