<svg width="30" height="30" viewBox="0 0 30 30" fill="none" xmlns="http://www.w3.org/2000/svg">
<path d="M27.5 15C27.5 13.3585 27.1767 11.733 26.5485 10.2165C25.9203 8.69989 24.9996 7.3219 23.8388 6.16117C22.6781 5.00043 21.3001 4.07969 19.7835 3.45151C18.267 2.82332 16.6415 2.5 15 2.5C11.6848 2.5 8.50537 3.81696 6.16117 6.16117C3.81696 8.50537 2.5 11.6848 2.5 15C2.5 18.3152 3.81696 21.4946 6.16117 23.8388C8.50537 26.183 11.6848 27.5 15 27.5C18.3152 27.5 21.4946 26.183 23.8388 23.8388C26.183 21.4946 27.5 18.3152 27.5 15ZM24.9125 13.75H21.25C21.0438 10.8102 20.0366 7.98294 18.3375 5.575C20.0831 6.19496 21.6222 7.28759 22.7831 8.73105C23.9441 10.1745 24.6813 11.9121 24.9125 13.75ZM11.35 16.25H18.75C18.4301 19.3382 17.1138 22.2385 15 24.5125C12.8876 22.248 11.6015 19.3366 11.35 16.25ZM11.35 13.75C11.6411 10.6773 12.922 7.78215 15 5.5C17.1309 7.75765 18.4502 10.6601 18.75 13.75H11.35ZM11.8 5.5375C10.0919 7.95878 9.0685 10.7959 8.8375 13.75H5.0875C5.32363 11.8894 6.07826 10.1327 7.26521 8.68047C8.45216 7.22828 10.0236 6.13916 11.8 5.5375ZM5.0875 16.25H8.8375C9.04337 19.2016 10.0599 22.0391 11.775 24.45C10.005 23.8454 8.43998 22.7565 7.25784 21.307C6.07569 19.8575 5.32377 18.1055 5.0875 16.25ZM18.275 24.4375C19.9855 22.0258 21.0133 19.1972 21.25 16.25H24.9375C24.7011 18.1003 23.9519 19.8476 22.7746 21.2944C21.5972 22.7413 20.0386 23.83 18.275 24.4375Z" />
</svg>
