<svg width="22" height="22" viewBox="0 0 22 22" fill="none" xmlns="http://www.w3.org/2000/svg">
<path d="M14.5 6.90234L18 3.40234M20 1.40234L18 3.40234L20 1.40234ZM10.39 11.0123C10.9064 11.5218 11.3168 12.1284 11.5978 12.7971C11.8787 13.4659 12.0246 14.1836 12.0271 14.909C12.0295 15.6343 11.8884 16.353 11.6119 17.0236C11.3355 17.6943 10.9291 18.3036 10.4162 18.8165C9.90326 19.3294 9.29395 19.7358 8.62333 20.0123C7.95271 20.2887 7.23403 20.4298 6.50866 20.4274C5.7833 20.4249 5.06557 20.2791 4.39682 19.9981C3.72807 19.7171 3.1215 19.3067 2.61203 18.7903C1.61016 17.753 1.05579 16.3637 1.06832 14.9216C1.08085 13.4796 1.65928 12.1001 2.67903 11.0803C3.69877 10.0606 5.07824 9.48217 6.52032 9.46964C7.96241 9.45711 9.35172 10.0115 10.389 11.0133L10.39 11.0123ZM10.39 11.0123L14.5 6.90234L10.39 11.0123ZM14.5 6.90234L17.5 9.90234L21 6.40234L18 3.40234L14.5 6.90234Z" stroke="#888888" stroke-width="2" stroke-linecap="round" stroke-linejoin="round"/>
</svg>
