<svg width="30" height="25" viewBox="0 0 30 25" fill="none" xmlns="http://www.w3.org/2000/svg">
<path d="M29.9414 2.90426C28.8183 3.39875 27.6285 3.72515 26.4103 3.87297C27.6929 3.10207 28.6532 1.89311 29.1139 0.469362C27.9252 1.16308 26.6078 1.66806 25.2053 1.9493C24.2801 0.959878 23.054 0.303645 21.7175 0.0825048C20.3811 -0.138636 19.009 0.0876908 17.8143 0.72634C16.6196 1.36499 15.6693 2.38022 15.1108 3.61439C14.5523 4.84855 14.417 6.23258 14.7258 7.55157C9.61347 7.31033 5.08241 4.85543 2.05004 1.14433C1.49855 2.08156 1.2109 3.15053 1.21757 4.23796C1.21757 6.37537 2.30503 8.25404 3.95246 9.35774C2.97607 9.32666 2.02125 9.06267 1.16757 8.58777V8.66402C1.16702 10.0844 1.65789 11.4613 2.5569 12.5611C3.45591 13.6608 4.70769 14.4156 6.09987 14.6975C5.19778 14.9392 4.25296 14.9755 3.33498 14.8038C3.73028 16.0261 4.49722 17.0946 5.52883 17.8603C6.56044 18.6259 7.80528 19.0505 9.08974 19.0748C6.9142 20.7821 4.22803 21.7088 1.46256 21.706C0.975081 21.706 0.488852 21.6772 0.00012207 21.6222C2.81964 23.4276 6.09801 24.3859 9.44598 24.3834C20.763 24.3834 26.944 15.0138 26.944 6.90159C26.944 6.64036 26.944 6.37662 26.9253 6.11413C28.1327 5.24522 29.1742 4.16646 30.0001 2.92926L29.9414 2.90426Z" />
</svg>
